# AST/ASF file generated using VICON BodyLanguage
# -----------------------------------------------
:version 1.10
:name VICON
:units
  mass 1.0
  length 0.45
  angle deg
:documentation
   .ast/.asf automatically generated from VICON data using
   VICON BodyBuilder and BodyLanguage model FoxedUp or BRILLIANT.MOD
:root
   order TX TY TZ RX RY RZ
   axis XYZ
   position 0 0 0  
   orientation 0 0 0 
:bonedata
  begin
     id 1 
     name lhipjoint
     direction 0.635376 -0.686425 0.353719 
     length 2.47244 
     axis 0 0 0  XYZ
  end
  begin
     id 2 
     name lfemur
     direction 0.34202 -0.939693 0  
     length 7.25268  
     axis 0 0 20  XYZ
    dof rx ry rz
    limits (-160.0 20.0)
           (-70.0 70.0)
           (-60.0 70.0)
  end
  begin
     id 3 
     name ltibia
     direction 0.34202 -0.939693 0   
     length 7.6767   
     axis 0 0 20   XYZ
    dof rx
    limits (-10.0 170.0)
  end
  begin
     id 4 
     name lfoot
     direction 0.0803374 -0.220725 0.972022   
     length 2.22945   
     axis -90 7.62852e-016 20   XYZ
    dof rx rz
    limits (-45.0 90.0)
           (-70.0 20.0)
  end
  begin
     id 5 
     name ltoes
     direction 1.53579e-011 -4.21994e-011 1   
     length 1.11848   
     axis -90 7.62852e-016 20   XYZ
    dof rx
    limits (-90.0 20.0)
  end
  begin
     id 6 
     name rhipjoint
     direction -0.664428 -0.664335 0.342336   
     length 2.55466  
     axis 0 0 0  XYZ 
  end
  begin
     id 7 
     name rfemur
     direction -0.34202 -0.939693 0   
     length 6.83172   
     axis 0 0 -20   XYZ
    dof rx ry rz
    limits (-160.0 20.0)
           (-70.0 70.0)
           (-70.0 60.0)
  end
  begin
     id 8 
     name rtibia
     direction -0.34202 -0.939693 0   
     length 7.62692   
     axis 0 0 -20   XYZ
    dof rx
    limits (-10.0 170.0)
 end
 begin
     id 9 
     name rfoot
     direction -0.0949276 -0.260811 0.960711   
     length 2.19684  
     axis -90 -7.62852e-016 -20   XYZ
    dof rx rz
    limits (-45.0 90.0)
           (-20.0 70.0)
  end
  begin
     id 10 
     name rtoes
     direction -1.53543e-011 -4.2183e-011 1   
     length 1.09848   
     axis -90 -7.62852e-016 -20   XYZ
    dof rx
    limits (-90.0 20.0)
  end
  begin
     id 11 
     name lowerback
     direction 0.0118782 0.999815 -0.0151555   
     length 2.15772   
     axis 0 0 0   XYZ
    dof rx ry rz
    limits (-20.0 45.0)
           (-30.0 30.0)
           (-30.0 30.0)
  end
  begin
     id 12 
     name upperback
     direction 0.00130825 0.999065 0.0432113   
     length 2.14863   
     axis 0 0 0   XYZ
    dof rx ry rz
    limits (-20.0 45.0)
           (-30.0 30.0)
           (-30.0 30.0)
  end
  begin
     id 13 
     name thorax
     direction -0.00347005 0.998773 0.0494011   
     length 2.14936   
     axis 0 0 0   XYZ
    dof rx ry rz
    limits (-20.0 45.0)
           (-30.0 30.0)
           (-30.0 30.0)
  end
  begin
     id 14 
     name lowerneck
     direction -0.0262159 0.99424 0.103921   
     length 1.69373   
     axis 0 0 0   XYZ
    dof rx ry rz
    limits (-20.0 45.0)
           (-30.0 30.0)
           (-30.0 30.0)
  end
  begin
     id 15 
     name upperneck
     direction 0.0353511 0.977394 -0.20845   
     length 1.70857   
     axis 0 0 0   XYZ
    dof rx ry rz
    limits (-20.0 45.0)
           (-30.0 30.0)
           (-30.0 30.0)
  end
  begin
     id 16
     name head
     direction 0.0139214 0.996594 -0.0812836  
     length 1.72777  
     axis 0 0 0   XYZ
    dof rx ry rz
    limits (-20.0 45.0)
           (-30.0 30.0)
           (-30.0 30.0)
  end
  begin
     id 17 
     name lclavicle
     direction 0.841247 0.537205 -0.0609508  
     length 3.55371  
     axis 0 0 0   XYZ
    dof ry rz
    limits (-20.0 10.0)
           (0.0 20.0)
  end
  begin
     id 18 
     name lhumerus
     direction 1 -4.48964e-011 1.60116e-018   
     length 4.91377   
     axis -180 -30 -90   XYZ
    dof rx ry rz
    limits (-60.0 90.0)
           (-90.0 90.0)
           (-90.0 90.0)
  end
  begin
     id 19
     name lradius
     direction 1 -4.48989e-011 -8.93847e-027   
     length 3.00291   
     axis -180 -30 -90   XYZ
    dof rx
    limits (-10.0 170.0)
  end
  begin
     id 20
     name lwrist
     direction 1 -4.48932e-011 -7.31504e-027   
     length 1.50145   
     axis 5.74121e-015 90 90   XYZ
    dof ry
    limits (-180.0 0.0)
 end
  begin
     id 21 
     name lhand
     direction 1 -4.48971e-011 -1.46301e-026   
     length 0.450922   
     axis 9.33524e-015 90 90   XYZ
    dof rx rz
    limits (-90.0 90.0)
           (-45.0 45.0)
  end
  begin
     id 22 
     name lfingers
     direction 1 -4.49039e-011 -2.92602e-026   
     length 0.363545   
     axis 1.86705e-014 90 90   XYZ
    dof rx
    limits (0.0 90.0)
  end
  begin
     id 23
     name lthumb
     direction 0.707107 -6.34941e-011 0.707107   
     length 0.52198   
     axis -90 45 2.85299e-015   XYZ
    dof rx rz
    limits (-45.0 45.0)
           (-45.0 45.0)
  end
  begin
     id 24 
     name rclavicle
     direction -0.825079 0.56158 -0.0622297   
     length 3.39909  
     axis 0 0 0   XYZ 
    dof ry rz
    limits (-10.0 20.0)
           (-20.0 0.0)
  end
  begin
     id 25 
     name rhumerus
     direction -1 -4.48965e-011 1.61691e-027  
     length 4.86725   
     axis -180 30 90   XYZ
    dof rx ry rz
    limits (-90.0 60.0)
           (-90.0 90.0)
           (-90.0 90.0)
  end
  begin
     id 26 
     name rradius
     direction -1 -4.48964e-011 -2.25776e-027   
     length 3.17144   
     axis -180 30 90   XYZ
    dof rx
    limits (-10.0 170.0)
  end
  begin
     id 27 
     name rwrist
     direction -1 -4.48961e-011 -7.31504e-027   
     length 1.58572   
     axis 5.74121e-015 -90 -90   XYZ
    dof ry
    limits (-180.0 0.0)
  end
  begin
     id 28
     name rhand
     direction -1 -4.49013e-011 -1.46301e-026   
     length 0.419368   
     axis 9.33524e-015 -90 -90   XYZ
    dof rx rz
    limits (-90.0 90.0)
           (-45.0 45.0)
  end
  begin
     id 29
     name rfingers
     direction -1 -4.489e-011 -2.92602e-026   
     length 0.338105   
     axis 1.86705e-014 -90 -90   XYZ
    dof rx
    limits (0.0 90.0)
  end
  begin
     id 30
     name rthumb
     direction -0.707107 -6.35022e-011 0.707107   
     length 0.485453   
     axis -90 -45 -2.85299e-015   XYZ
    dof rx rz
    limits (-45.0 45.0)
           (-45.0 45.0)
  end
:hierarchy
  begin
    root lhipjoint rhipjoint lowerback
    lhipjoint lfemur
    lfemur ltibia
    ltibia lfoot
    lfoot ltoes
    rhipjoint rfemur
    rfemur rtibia
    rtibia rfoot
    rfoot rtoes
    lowerback upperback
    upperback thorax
    thorax lowerneck lclavicle rclavicle
    lowerneck upperneck
    upperneck head
    lclavicle lhumerus
    lhumerus lradius
    lradius lwrist
    lwrist lhand lthumb
    lhand lfingers
    rclavicle rhumerus
    rhumerus rradius
    rradius rwrist
    rwrist rhand rthumb
    rhand rfingers
  end

#!OML:ASF H:\Swim 2\Project 1\Capture day 1\Session 1\male.ASF
:FULLY-SPECIFIED
:DEGREES
892
root 7.71098 8.89389 12.4613 76.5832 0.265993 177.885
lowerback 26.7398 -5.06375 2.67017
upperback -1.82992 -4.5304 4.1456
thorax -16.3397 -1.75003 4.78494
lowerneck -12.1176 1.37382 -5.15283
upperneck 45.3493 7.47651 1.55581
head 19.3081 5.06844 4.08015
rclavicle 1.59028e-015 7.7526e-015
rhumerus -65.901 38.4888 -35.6957
rradius 67.683
rwrist -57.4563
rhand -49.7028 6.9375
rfingers 7.12502
rthumb -22.3038 -21.7953
lclavicle 1.59028e-015 7.7526e-015
lhumerus -289.713 -11.2551 312.257
lradius 25.0173
lwrist 9.79109
lhand -26.3304 -2.09309
lfingers 7.12502
lthumb 0.226621 27.8865
rfemur 19.3896 9.84329 23.0544
rtibia 20.9724
rfoot 3.27699 -9.20229
rtoes 20.5044
lfemur 32.6703 -2.50341 -31.5265
ltibia 25.1412
lfoot 8.02182 2.4024
ltoes 20.5423
893
root 7.70554 8.90156 12.4751 76.8198 0.373618 177.944
lowerback 26.5523 -5.08043 2.62147
upperback -1.89344 -4.43012 4.68569
thorax -16.2901 -1.65275 5.35475
lowerneck -12.136 1.54902 -5.29436
upperneck 45.3535 7.96211 1.3385
head 19.3097 5.24104 4.1001
rclavicle 4.92986e-014 -6.59965e-014
rhumerus -67.5351 39.2119 -37.68
rradius 68.5055
rwrist -55.3697
rhand -49.352 7.52264
rfingers 7.12502
rthumb -21.967 -21.2501
lclavicle 4.92986e-014 -6.59965e-014
lhumerus -291.293 -10.5687 314.456
lradius 25.1241
lwrist 7.98754
lhand -26.1068 -2.66109
lfingers 7.12502
lthumb 0.442598 27.3182
rfemur 18.7711 10.0412 23.0004
rtibia 20.4408
rfoot 3.38696 -9.56945
rtoes 20.2582
lfemur 33.2532 -2.32855 -31.4743
ltibia 25.6407
lfoot 8.76995 1.25164
ltoes 22.0282
894
root 7.70127 8.90882 12.4861 76.9795 0.462044 178
lowerback 26.4318 -5.0903 2.57392
upperback -1.92898 -4.32702 5.1715
thorax -16.2479 -1.55645 5.86768
lowerneck -12.1509 1.70525 -5.4173
upperneck 45.3402 8.39716 1.13693
head 19.3016 5.39646 4.1125
rclavicle 3.65764e-014 -1.03368e-014
rhumerus -69.2165 39.8914 -39.7807
rradius 69.3065
rwrist -53.1046
rhand -48.9864 8.1231
rfingers 7.12502
rthumb -21.6159 -20.6904
lclavicle 3.65764e-014 -1.03368e-014
lhumerus -292.75 -9.77193 316.295
lradius 25.2424
lwrist 6.59433
lhand -25.8866 -3.10018
lfingers 7.12502
lthumb 0.655312 26.8786
rfemur 18.2958 10.2239 22.9531
rtibia 19.9232
rfoot 3.42316 -10.0472
rtoes 20.2458
lfemur 33.8058 -2.10549 -31.4165
ltibia 26.2777
lfoot 9.50085 0.186128
ltoes 23.2219
895
root 7.69831 8.91545 12.4946 77.0703 0.535519 178.053
lowerback 26.3652 -5.09124 2.54098
upperback -1.93738 -4.21754 5.59858
thorax -16.2083 -1.46222 6.30882
lowerneck -12.1599 1.8437 -5.52715
upperneck 45.3077 8.77814 0.963236
head 19.2801 5.53353 4.12283
rclavicle 2.8625e-014 -4.29375e-014
rhumerus -70.9526 40.5376 -42.0244
rradius 70.0728
rwrist -50.7482
rhand -48.6816 8.81741
rfingers 7.12502
rthumb -21.3232 -20.0295
lclavicle 2.8625e-014 -4.29375e-014
lhumerus -294.07 -8.88849 317.735
lradius 25.3578
lwrist 5.58333
lhand -25.6811 -3.3983
lfingers 7.12502
lthumb 0.853769 26.5797
rfemur 17.957 10.3875 22.9186
rtibia 19.4236
rfoot 3.40407 -10.6019
rtoes 20.4717
lfemur 34.3099 -1.83259 -31.3385
ltibia 27.0469
lfoot 10.22 -0.776308
ltoes 24.1805
896
root 7.69685 8.92144 12.5008 77.1024 0.591792 178.107
lowerback 26.3433 -5.09115 2.51023
upperback -1.92208 -4.1174 5.967
thorax -16.1681 -1.37654 6.69012
lowerneck -12.161 1.97616 -5.5978
upperneck 45.2615 9.12557 0.798016
head 19.2505 5.66277 4.12161
rclavicle 3.33958e-014 -3.27995e-014
rhumerus -72.701 41.155 -44.4115
rradius 70.7942
rwrist -48.3666
rhand -48.4937 9.58225
rfingers 7.12502
rthumb -21.1428 -19.2849
lclavicle 3.33958e-014 -3.27995e-014
lhumerus -295.28 -7.96252 318.775
lradius 25.4532
lwrist 4.84467
lhand -25.5136 -3.53059
lfingers 7.12502
lthumb 1.01554 26.4467
rfemur 17.7499 10.5326 22.898
rtibia 18.9433
rfoot 3.33489 -11.1994
rtoes 20.8392
lfemur 34.7507 -1.51586 -31.236
ltibia 27.933
lfoot 10.9081 -1.63489
ltoes 24.863
897
root 7.69708 8.92667 12.5052 77.0896 0.632286 178.166
lowerback 26.35 -5.08687 2.48409
upperback -1.88574 -4.0229 6.28092
thorax -16.1217 -1.29857 7.01196
lowerneck -12.1564 2.10127 -5.64057
upperneck 45.2026 9.44054 0.644002
head 19.2131 5.78311 4.11262
rclavicle -1.145e-013 9.81996e-014
rhumerus -74.425 41.7091 -46.8967
rradius 71.4588
rwrist -45.9716
rhand -48.4029 10.3907
rfingers 7.12502
rthumb -21.0555 -18.4862
lclavicle -1.145e-013 9.81996e-014
lhumerus -296.398 -6.99489 319.497
lradius 25.5118
lwrist 4.2335
lhand -25.4025 -3.53233
lfingers 7.12502
lthumb 1.12285 26.4445
rfemur 17.6621 10.6575 22.8947
rtibia 18.4907
rfoot 3.22998 -11.796
rtoes 21.1954
lfemur 35.1134 -1.16463 -31.1022
ltibia 28.9092
lfoot 11.4919 -2.38666
ltoes 25.2392
898
root 7.69894 8.93119 12.5083 77.0548 0.654114 178.231
lowerback 26.364 -5.0729 2.45913
upperback -1.83662 -3.92902 6.54719
thorax -16.0674 -1.22615 7.28076
lowerneck -12.1372 2.22081 -5.66193
upperneck 45.1291 9.72866 0.500335
head 19.1638 5.89679 4.09704
rclavicle 1.22451e-013 -4.83047e-014
rhumerus -76.0921 42.1783 -49.4321
rradius 72.05
rwrist -43.5236
rhand -48.4066 11.2641
rfingers 7.12502
rthumb -21.0591 -17.6124
lclavicle 1.22451e-013 -4.83047e-014
lhumerus -297.437 -5.98976 319.979
lradius 25.5221
lwrist 3.63916
lhand -25.3335 -3.43048
lfingers 7.12502
lthumb 1.18943 26.546
rfemur 17.6669 10.7601 22.9015
rtibia 18.077
rfoot 3.10577 -12.3409
rtoes 21.4674
lfemur 35.3738 -0.791293 -30.9407
ltibia 29.9422
lfoot 11.9835 -3.02766
ltoes 25.4135
899
root 7.70247 8.93481 12.5107 77.0151 0.656511 178.302
lowerback 26.3774 -5.04909 2.42394
upperback -1.7827 -3.83737 6.77652
thorax -16.009 -1.15822 7.51527
lowerneck -12.1922 7.31073 -6.7232
upperneck 45.4975 8.94093 4.42732
head 18.6966 0.324084 4.04667
rclavicle 9.38264e-014 -5.34731e-014
rhumerus -77.6662 42.5674 -51.9636
rradius 72.5604
rwrist -40.9695
rhand -48.4694 12.201
rfingers 7.12502
rthumb -21.1194 -16.6688
lclavicle 9.38264e-014 -5.34731e-014
lhumerus -298.424 -4.95559 320.294
lradius 25.4843
lwrist 3.01312
lhand -25.3274 -3.26853
lfingers 7.12502
lthumb 1.19538 26.7079
rfemur 17.7429 10.8303 22.9111
rtibia 17.7179
rfoot 2.97285 -12.7849
rtoes 21.6391
lfemur 35.5192 -0.407573 -30.7537
ltibia 30.9896
lfoot 12.3348 -3.57012
ltoes 25.3957
900
root 7.70751 8.93731 12.5126 76.9828 0.639688 178.38
lowerback 26.3844 -5.01172 2.37444
upperback -1.73053 -3.74262 6.97862
thorax -15.9512 -1.09135 7.7267
lowerneck -12.14 7.44176 -6.69265
upperneck 45.4225 9.22034 4.28381
head 18.6233 0.439389 4.01415
rclavicle -1.35174e-013 1.64991e-013
rhumerus -79.1196 42.8671 -54.4376
rradius 72.9744
rwrist -38.248
rhand -48.5467 13.2219
rfingers 7.12502
rthumb -21.1936 -15.6395
lclavicle -1.35174e-013 1.64991e-013
lhumerus -299.365 -3.89255 320.495
lradius 25.4076
lwrist 2.38211
lhand -25.3717 -3.09535
lfingers 7.12502
lthumb 1.15255 26.8813
rfemur 17.8715 10.8622 22.9171
rtibia 17.4282
rfoot 2.84772 -13.0831
rtoes 21.6791
lfemur 35.5398 -0.0268271 -30.5487
ltibia 32.0075
lfoot 12.5454 -4.03515
ltoes 25.1908
901
root 7.71398 8.93855 12.5141 76.9622 0.603932 178.464
lowerback 26.3934 -4.9721 2.2863
upperback -1.6818 -3.66262 7.16455
thorax -15.8963 -1.02965 7.94825
lowerneck -12.0846 7.59791 -6.62252
upperneck 45.3415 9.53159 4.13129
head 18.5474 0.572797 3.97506
rclavicle 2.22639e-014 -3.63776e-014
rhumerus -80.4218 43.1267 -56.8326
rradius 73.2928
rwrist -35.3363
rhand -48.6335 14.3723
rfingers 7.12502
rthumb -21.277 -14.4798
lclavicle 2.22639e-014 -3.63776e-014
lhumerus -300.305 -2.82119 320.606
lradius 25.3078
lwrist 1.82047
lhand -25.4611 -2.96203
lfingers 7.12502
lthumb 1.06618 27.0151
rfemur 18.0411 10.852 22.9165
rtibia 17.2266
rfoot 2.72037 -13.2144
rtoes 21.6729
lfemur 35.4377 0.336705 -30.3384
ltibia 32.9491
lfoot 12.6322 -4.40498
ltoes 24.9413
